<svg width="200" height="200" viewBox="0 0 200 200" fill="none" xmlns="http://www.w3.org/2000/svg">
<rect width="200" height="200" fill="#94CF96"/>
<path d="M32.5 188V185.5L36.25 184.25C41.9167 182.417 44.75 178.333 44.75 172V38.25C44.75 34.9167 44.0833 32.4167 42.75 30.75C41.4167 29.0833 39.0833 27.75 35.75 26.75L32.5 26V23.5L78.25 12.75L81.25 15L80.5 50V172C80.5 178.667 83.25 182.833 88.75 184.5L92.25 185.5V188H32.5ZM125.25 188L80.75 125.5L127 82.75C129.167 80.75 130.417 78.6667 130.75 76.5C131.25 74.1667 129.833 72.5 126.5 71.5L122.25 70.25V67.75H159.5V70.25L152 72.25C148.333 73.4167 145.333 74.8333 143 76.5C140.833 78 138.167 80.1667 135 83L107 109.25L151.75 171.5C154.417 175.167 156.917 178 159.25 180C161.583 182 164.583 183.667 168.25 185L169.25 185.5V188H125.25Z" fill="black"/>
</svg>
