<svg id="visual" viewBox="0 0 3000 2000" width="3000" height="2000" xmlns="http://www.w3.org/2000/svg" xmlns:xlink="http://www.w3.org/1999/xlink" version="1.1"><path d="M0 1930L83.3 1903.7C166.7 1877.3 333.3 1824.7 500 1789.8C666.7 1755 833.3 1738 1000 1770.7C1166.7 1803.3 1333.3 1885.7 1500 1881.2C1666.7 1876.7 1833.3 1785.3 2000 1731.3C2166.7 1677.3 2333.3 1660.7 2500 1697.3C2666.7 1734 2833.3 1824 2916.7 1869L3000 1914L3000 2001L2916.7 2001C2833.3 2001 2666.7 2001 2500 2001C2333.3 2001 2166.7 2001 2000 2001C1833.3 2001 1666.7 2001 1500 2001C1333.3 2001 1166.7 2001 1000 2001C833.3 2001 666.7 2001 500 2001C333.3 2001 166.7 2001 83.3 2001L0 2001Z" fill="#fefae0" stroke-linecap="round" stroke-linejoin="miter"></path></svg>